# xmcd CD database file
# Copyright (C) 1993-1998 Ti Kan
# 
# Track frame offsets:
#     150
#     13977
#     30900
#     49432
#     65248
#     77114
#     91496
#     107453
#     122135
#     136846
#     147942
#     158512
#     170940
#     184972
#     197404
# 
# Disc length: 2788 seconds
# 
# Revision: 1
# Processed by: cddbd v1.4b41PL1 Copyright (c) Steve Scherf et al.
# Submitted via: DiscPlay 4.0.4
# 
DISCID=d20ae20f
DTITLE=Various Artist - Luky Luke III Greatest Hits 1998
DYEAR=1900
DGENRE=
TTITLE0=Cowboy's Sweetheart
TTITLE1=Almost Persuaded
TTITLE2=Backseat Driver
TTITLE3=Boogie Till the Cow's Come Home
TTITLE4=Callin' Baton Rouge
TTITLE5=Even Cowboy's like a Little  Bit of Rock 'n Roll
TTITLE6=Gold Mine
TTITLE7=Every Little Thing
TTITLE8=Hard Times and Misery
TTITLE9=Last Time Uh Uh
TTITLE10=Louisiana Saturday Night
TTITLE11=New Way ( To Light up an Old Flame)
TTITLE12=Shake The Sugar Tree
TTITLE13=Till The Anwser Come
TTITLE14=You Can Depend on me
EXTD=
EXTT0=
EXTT1=
EXTT2=
EXTT3=
EXTT4=
EXTT5=
EXTT6=
EXTT7=
EXTT8=
EXTT9=
EXTT10=
EXTT11=
EXTT12=
EXTT13=
EXTT14=
PLAYORDER=
